<?xml version="1.0" encoding="utf-8"?><svg xmlns="http://www.w3.org/2000/svg" xmlns:xlink="http://www.w3.org/1999/xlink"><symbol fill="none" viewBox="0 0 20 12" id="burger" xmlns="http://www.w3.org/2000/svg"><rect width="1.7" height="20" rx=".85" transform="matrix(0 -1 1 -.00003 0 7)" fill="currentColor"/><rect width="1.7" height="20" rx=".85" transform="matrix(0 -1 1 -.00003 0 2)" fill="currentColor"/><rect width="1.7" height="20" rx=".85" transform="rotate(-90 6 6) skewX(.002)" fill="currentColor"/></symbol><symbol fill="none" viewBox="0 0 20 20" id="cross" xmlns="http://www.w3.org/2000/svg"><rect width="1.744" height="26.154" rx=".872" transform="rotate(44.999 9.053 22.79)" fill="currentColor"/><rect width="1.744" height="26.154" rx=".872" transform="rotate(-44.999 1.488 .616)" fill="currentColor"/></symbol><symbol fill="none" viewBox="0 0 24 24" id="vk" xmlns="http://www.w3.org/2000/svg"><g clip-path="url(#ca)"><path d="M23.873 17.52a1.67 1.67 0 0 0-.082-.156c-.416-.75-1.212-1.67-2.386-2.762l-.025-.025-.012-.012-.013-.013h-.013c-.533-.508-.87-.85-1.012-1.025-.258-.333-.316-.67-.175-1.012.1-.258.475-.804 1.125-1.637.341-.441.612-.795.812-1.062 1.441-1.916 2.066-3.14 1.874-3.674l-.074-.124c-.05-.075-.18-.144-.387-.206-.209-.063-.475-.073-.8-.032l-3.599.025a.467.467 0 0 0-.25.007l-.163.037-.062.031-.05.038a.556.556 0 0 0-.137.131.86.86 0 0 0-.125.219 20.41 20.41 0 0 1-1.337 2.811c-.308.517-.592.965-.85 1.344-.258.379-.475.658-.65.837-.175.179-.333.322-.475.43-.141.11-.25.155-.324.138a9.456 9.456 0 0 1-.213-.05.832.832 0 0 1-.281-.306 1.37 1.37 0 0 1-.144-.487 5.39 5.39 0 0 1-.043-.506c-.004-.142-.003-.342.006-.6.009-.259.012-.433.012-.525 0-.317.007-.66.019-1.031l.031-.88c.009-.217.013-.447.013-.688 0-.242-.015-.431-.044-.569a1.949 1.949 0 0 0-.13-.4.674.674 0 0 0-.257-.3 1.443 1.443 0 0 0-.419-.168c-.441-.1-1.004-.154-1.687-.163-1.55-.016-2.545.084-2.986.3a1.683 1.683 0 0 0-.475.375c-.15.183-.171.283-.063.3.5.075.854.254 1.062.537l.075.15c.059.109.117.3.175.575a5.8 5.8 0 0 1 .113.912 9.727 9.727 0 0 1 0 1.562c-.042.433-.081.77-.119 1.012a2.026 2.026 0 0 1-.169.588c-.075.15-.125.241-.15.274a.216.216 0 0 1-.062.063.938.938 0 0 1-.337.063c-.117 0-.259-.059-.425-.176a2.996 2.996 0 0 1-.519-.48 6.427 6.427 0 0 1-.606-.857 14.93 14.93 0 0 1-.7-1.3l-.2-.362a31.157 31.157 0 0 1-.512-1.018 19.632 19.632 0 0 1-.575-1.293.824.824 0 0 0-.3-.4l-.062-.038a.855.855 0 0 0-.2-.106 1.327 1.327 0 0 0-.287-.081L.8 5.78c-.35 0-.587.079-.712.237l-.05.075a.404.404 0 0 0-.038.2c0 .092.025.204.075.337a41.246 41.246 0 0 0 1.63 3.4c.588 1.09 1.098 1.97 1.531 2.636.433.666.875 1.295 1.325 1.887.45.591.748.97.893 1.137.146.167.26.291.344.375l.312.3c.2.2.494.439.881.718.388.28.817.554 1.287.825.471.27 1.019.491 1.644.662.624.17 1.233.24 1.824.206h1.437c.292-.025.512-.116.662-.275l.05-.062a.831.831 0 0 0 .094-.231c.03-.104.044-.219.044-.344-.009-.358.018-.68.08-.968.063-.287.134-.504.213-.65a1.597 1.597 0 0 1 .482-.55.816.816 0 0 1 .1-.043c.2-.067.434-.002.706.194.27.195.524.437.762.724.237.288.522.61.856.969.333.358.625.624.874.8l.25.15c.167.1.384.191.65.274.266.084.5.104.7.063l3.199-.05c.316 0 .562-.052.737-.156.175-.105.279-.22.312-.344a.97.97 0 0 0 .007-.425 1.578 1.578 0 0 0-.088-.331Z" fill="currentColor"/></g><defs><clipPath id="ca"><path fill="#fff" d="M0 0h24v24H0z"/></clipPath></defs></symbol><symbol fill="none" viewBox="0 0 12 12" id="webripple" xmlns="http://www.w3.org/2000/svg"><circle cx="6" cy="6" r="6" fill="currentColor"/><circle cx="6" cy="6" r="1" fill="#fff"/><circle cx="6" cy="6" r="3.5" stroke="#fff"/></symbol></svg>